<?xml version="1.0" encoding="utf-8"?>
<!-- Generator: Adobe Illustrator 25.2.1, SVG Export Plug-In . SVG Version: 6.00 Build 0)  -->
<svg version="1.1" id="Ebene_1" xmlns="http://www.w3.org/2000/svg" xmlns:xlink="http://www.w3.org/1999/xlink" x="0px" y="0px"
	 viewBox="0 0 204.0944824 96.3779526" enable-background="new 0 0 204.0944824 96.3779526" xml:space="preserve">
<g>
	<path fill="#FDE2C6" d="M204.0944824,0H1.6500301C4.5416317,18.2284546,9.3033504,33.6309814,16.254034,44.1066284
		c5.7841797,7.5033569,16.3928852,14.229187,31.1530781,18.7415161
		c36.7218018,11.2270508,96.3834152,12.6852417,156.6873779,6.065918V0z"/>
	<path fill="#F8BA78" d="M204.0944824,0H92.3908157c-1.5621948,11.6046143-2.8487549,23.4307861-3.885437,35.2796021
		c-3.3569336,38.3690186,2.713623,53.7744751,41.0994797,57.1323853c20.6495361,1.8067017,46.7614136-0.4772949,74.489624-5.8439941
		V0z"/>
	<linearGradient id="SVGID_1_" gradientUnits="userSpaceOnUse" x1="21.7901669" y1="46.572628" x2="204.0944824" y2="46.572628">
		<stop  offset="0" style="stop-color:#F6A713"/>
		<stop  offset="1" style="stop-color:#EF7D19"/>
	</linearGradient>
	<path fill="url(#SVGID_1_)" d="M204.0944824,0H21.7901669c14.3764668,38.9004517,32.9766846,72.6036377,52.5960693,86.5645752
		c8.0880127,4.9310303,20.4020386,7.4089355,35.7995605,6.3320312
		c25.3924484-1.7755737,58.6583176-11.1726685,93.9086838-25.4000244V0z"/>
</g>
</svg>
