<?xml version="1.0" encoding="utf-8"?>
<!-- Generator: Adobe Illustrator 24.0.2, SVG Export Plug-In . SVG Version: 6.00 Build 0)  -->
<svg version="1.1" id="Ebene_1" xmlns="http://www.w3.org/2000/svg" xmlns:xlink="http://www.w3.org/1999/xlink" x="0px" y="0px"
	 viewBox="0 0 484 130" enable-background="new 0 0 484 130" xml:space="preserve">
<path fill="#FF8700" d="M96.0999985,88.8000031c-1.9000015,0.5999985-3.4000015,0.8000031-5.4000015,0.8000031
	c-16.1999969,0-39.9000015-56.5-39.9000015-75.3000031c0-6.9000001,1.5999985-9.1999998,4-11.1999998
	C35,5.3000002,11.1999998,12.6000004,3.5999999,21.7999992C2,24.1000004,1,27.7000008,1,32.4000015
	c0,29.4000015,31.2999992,95.9999924,53.4000015,95.9999924c10.3000031,0,27.5-16.9000015,41.7000046-39.5999985 M85.8000031,1
	c20.4000015,0,40.9000015,3.3000002,40.9000015,14.8000002c0,23.4000015-14.9000015,51.7999992-22.4000015,51.7999992
	c-13.5,0-30.4000015-37.5999985-30.4000015-56.4000015C73.9000015,2.7,77.1999969,1,85.8000031,1"/>
<path d="M195.3000031,42.5v86h-12v-86H162V32.0999985h54.3999939v10.5L195.2999878,42.5H195.3000031z M258.3999939,83.6999969V128.5
	H246V83.6999969L221.3000031,32H234.5l18.1999969,40.0999985L270.8999939,32h12.5L258.3999939,83.6999969z M321.5,92.0999985
	h-11.6000061V128.5h-12V32.0999985c0,0,11.7999878-1,23.2999878-1c20.8999939,0,27,13,27,29.9000015
	c0,20.9000015-7.2000122,31.0999985-26.7000122,31.0999985H321.5z M322.8999939,41c-7.6000061,0-13,0.7999992-13,0.7999992V82h13
	C330.6000061,82,336,76.9000015,336,61.9000015C335.8999939,48.2000008,332.6000061,41,322.8999939,41z M392.8999939,129.5
	c-22.7000122,0-28.7999878-16.5-28.7999878-50.3000031c0-32.4000015,6.1000061-48.0999985,28.7999878-48.0999985
	c22.7000122,0,28.7999878,15.7000008,28.7999878,48.0999985C421.6999817,112.8999939,415.5999756,129.5,392.8999939,129.5z
	 M392.8999939,41.0999985c-12.3999939,0-16.5,8.4000015-16.5,38.7000046c0,29.5999985,4.1000061,39.5,16.5,39.5
	s16.5-9.9000015,16.5-39.5C409.3999939,49.6000023,405.2999878,41.1000023,392.8999939,41.0999985z M458.7000122,129.5
	c-6.7000122,0-16.7999878-2.0999985-18.1000061-2.3000031v-10.3000031C443.8999939,117.5999908,452.5,119.0999908,458.5,119.0999908
	c7,0,11.6000061-5.8000031,11.6000061-16.4000015c0-12.8000031-2.1000061-19.2000046-11.8999939-19.2000046H447V73.4000015
	h9.8999939C468.1000061,73.4000015,468.6000061,62,468.6000061,56.5c0-10.9000015-3.3999939-15.2999992-10.2999878-15.2999992
	c-6.1000061,0-13,1.5-17,2.2999992V33.4000015c1.5-0.2999992,9.6000061-2.2999992,16.7000122-2.2999992
	c14.2000122,0,22.2999878,6.0999985,22.2999878,26.6000023c0,9.4000015-2.8999939,17.5999985-10.5,20
	c9,1.1999969,12.1000061,10.0999985,12.1000061,23.5999985C482.0000305,121.8000031,474.0000305,129.5,458.7000122,129.5z"/>
</svg>
